<?xml version="1.0" encoding="utf-8"?>
<!-- Generator: Adobe Illustrator 16.0.0, SVG Export Plug-In . SVG Version: 6.00 Build 0)  -->
<!DOCTYPE svg PUBLIC "-//W3C//DTD SVG 1.1//EN" "http://www.w3.org/Graphics/SVG/1.1/DTD/svg11.dtd">
<svg version="1.1" id="_x3C_Layer_x3E_" xmlns="http://www.w3.org/2000/svg" xmlns:xlink="http://www.w3.org/1999/xlink" x="0px"
	 y="0px" width="127.553px" height="23.677px" viewBox="0 0 127.553 23.677" enable-background="new 0 0 127.553 23.677"
	 xml:space="preserve">
<g>
	<polygon fill="#3BAC37" points="17.027,0 17.027,11.946 8.846,0 0,0 0,23.677 8.815,23.677 8.815,11.73 16.999,23.677 
		25.841,23.677 25.841,0 	"/>
	<path fill="#3BAC37" d="M120.427,14.819c3.132-0.872,5.151-3.13,5.151-6.762c0-6.098-4.841-8.058-11.22-8.058
		c-3.095,0-11.012,0-11.012,0v23.677h8.813v-7.394l5.262,7.394h10.131L120.427,14.819z M116.095,9.997
		c-0.514,0.417-1.505,0.623-2.323,0.623h-1.893V5.957h1.856c0.89,0,1.904,0.211,2.395,0.636c0.491,0.426,0.718,1.005,0.718,1.738
		C116.849,9.028,116.61,9.583,116.095,9.997z"/>
	<path fill="#3BAC37" d="M81.863,0h17.871v6.166h-9.141v2.787h8.421v5.819h-8.421v2.737h9.421v6.167H81.863V0z"/>
	<path fill="#3BAC37" d="M47.057,0H37.003L27.73,23.677h9.805l0.855-3.092h7.28l0.857,3.092h9.803L47.057,0z M39.835,15.112
		l2.075-7.809h0.241l2.076,7.809H39.835z"/>
	<polygon fill="#3BAC37" points="70.364,0 66.019,14.276 65.775,14.276 61.433,0 51.818,0 61.736,23.677 70.057,23.677 79.975,0 	
		"/>
</g>
</svg>
